<svg width="1217" height="650" viewBox="0 0 1217 650" fill="none" xmlns="http://www.w3.org/2000/svg">
<rect x="0.5" y="0.5" width="1216" height="649" fill="#0C3CE9" stroke="black"/>
<path d="M54.816 104.344H57.504V113.944H69.6V104.344H72.288V127H69.6V116.44H57.504V127H54.816V104.344ZM76.5978 119.512C76.5978 118.339 76.8004 117.272 77.2057 116.312C77.6111 115.352 78.1658 114.531 78.8698 113.848C79.5738 113.144 80.4164 112.6 81.3978 112.216C82.3791 111.832 83.4458 111.64 84.5978 111.64C85.7498 111.64 86.8164 111.832 87.7978 112.216C88.7791 112.6 89.6218 113.144 90.3258 113.848C91.0298 114.531 91.5844 115.352 91.9897 116.312C92.3951 117.272 92.5978 118.339 92.5978 119.512C92.5978 120.685 92.3951 121.752 91.9897 122.712C91.5844 123.672 91.0298 124.504 90.3258 125.208C89.6218 125.891 88.7791 126.424 87.7978 126.808C86.8164 127.192 85.7498 127.384 84.5978 127.384C83.4458 127.384 82.3791 127.192 81.3978 126.808C80.4164 126.424 79.5738 125.891 78.8698 125.208C78.1658 124.504 77.6111 123.672 77.2057 122.712C76.8004 121.752 76.5978 120.685 76.5978 119.512ZM79.2858 119.512C79.2858 120.301 79.4031 121.037 79.6378 121.72C79.8938 122.381 80.2564 122.968 80.7258 123.48C81.1951 123.971 81.7498 124.365 82.3898 124.664C83.0511 124.941 83.7871 125.08 84.5978 125.08C85.4084 125.08 86.1338 124.941 86.7738 124.664C87.4351 124.365 88.0004 123.971 88.4698 123.48C88.9391 122.968 89.2911 122.381 89.5258 121.72C89.7818 121.037 89.9098 120.301 89.9098 119.512C89.9098 118.723 89.7818 117.997 89.5258 117.336C89.2911 116.653 88.9391 116.067 88.4698 115.576C88.0004 115.064 87.4351 114.669 86.7738 114.392C86.1338 114.093 85.4084 113.944 84.5978 113.944C83.7871 113.944 83.0511 114.093 82.3898 114.392C81.7498 114.669 81.1951 115.064 80.7258 115.576C80.2564 116.067 79.8938 116.653 79.6378 117.336C79.4031 117.997 79.2858 118.723 79.2858 119.512ZM96.4618 115.576C96.4618 114.893 96.4404 114.253 96.3978 113.656C96.3551 113.059 96.3338 112.515 96.3338 112.024H98.7018C98.7018 112.429 98.7124 112.835 98.7338 113.24C98.7551 113.645 98.7658 114.061 98.7658 114.488H98.8298C99.0004 114.125 99.2351 113.773 99.5338 113.432C99.8538 113.091 100.227 112.792 100.654 112.536C101.08 112.259 101.56 112.045 102.094 111.896C102.627 111.725 103.203 111.64 103.822 111.64C104.632 111.64 105.304 111.747 105.838 111.96C106.392 112.152 106.851 112.397 107.214 112.696C107.576 112.973 107.854 113.283 108.046 113.624C108.259 113.944 108.43 114.232 108.558 114.488C109.112 113.592 109.752 112.899 110.478 112.408C111.203 111.896 112.142 111.64 113.294 111.64C114.36 111.64 115.256 111.789 115.982 112.088C116.707 112.365 117.294 112.781 117.742 113.336C118.19 113.869 118.51 114.531 118.702 115.32C118.894 116.088 118.99 116.952 118.99 117.912V127H116.494V118.04C116.494 117.528 116.44 117.027 116.334 116.536C116.227 116.045 116.035 115.608 115.758 115.224C115.48 114.84 115.107 114.531 114.638 114.296C114.168 114.061 113.571 113.944 112.846 113.944C112.312 113.944 111.811 114.051 111.342 114.264C110.872 114.477 110.456 114.776 110.094 115.16C109.752 115.544 109.475 116.013 109.262 116.568C109.07 117.101 108.974 117.699 108.974 118.36V127H106.478V118.52C106.478 116.856 106.254 115.683 105.806 115C105.358 114.296 104.622 113.944 103.598 113.944C102.787 113.944 102.083 114.083 101.486 114.36C100.91 114.637 100.43 115.032 100.046 115.544C99.6831 116.056 99.4058 116.664 99.2138 117.368C99.0431 118.072 98.9578 118.851 98.9578 119.704V127H96.4618V115.576ZM137.088 124.28C136.192 125.432 135.21 126.243 134.144 126.712C133.077 127.16 131.84 127.384 130.432 127.384C129.258 127.384 128.202 127.181 127.264 126.776C126.325 126.349 125.525 125.784 124.864 125.08C124.224 124.376 123.722 123.544 123.36 122.584C123.018 121.624 122.848 120.6 122.848 119.512C122.848 118.36 123.04 117.304 123.424 116.344C123.808 115.363 124.341 114.531 125.024 113.848C125.706 113.144 126.517 112.6 127.456 112.216C128.394 111.832 129.418 111.64 130.528 111.64C131.573 111.64 132.533 111.821 133.408 112.184C134.282 112.525 135.029 113.037 135.648 113.72C136.288 114.381 136.778 115.203 137.12 116.184C137.461 117.144 137.632 118.243 137.632 119.48V120.28H125.536C125.578 120.92 125.728 121.539 125.984 122.136C126.261 122.712 126.613 123.224 127.04 123.672C127.466 124.099 127.968 124.44 128.544 124.696C129.12 124.952 129.749 125.08 130.432 125.08C131.52 125.08 132.437 124.888 133.184 124.504C133.93 124.12 134.602 123.555 135.2 122.808L137.088 124.28ZM134.944 118.168C134.901 116.888 134.485 115.864 133.696 115.096C132.906 114.328 131.818 113.944 130.432 113.944C129.045 113.944 127.925 114.328 127.072 115.096C126.218 115.864 125.706 116.888 125.536 118.168H134.944Z" fill="#E8EFE6"/>
<path d="M456.016 106.344H458.8L468.496 129H464.912L462.64 123.4H451.856L449.616 129H446.032L456.016 106.344ZM461.52 120.712L457.296 110.312H457.232L452.944 120.712H461.52ZM470.707 104.808H473.587V116.008H473.651C474.163 115.219 474.899 114.6 475.859 114.152C476.819 113.683 477.843 113.448 478.931 113.448C480.105 113.448 481.161 113.651 482.099 114.056C483.059 114.461 483.87 115.027 484.531 115.752C485.214 116.456 485.737 117.299 486.099 118.28C486.462 119.24 486.643 120.285 486.643 121.416C486.643 122.547 486.462 123.592 486.099 124.552C485.737 125.512 485.214 126.355 484.531 127.08C483.87 127.805 483.059 128.371 482.099 128.776C481.161 129.181 480.105 129.384 478.931 129.384C477.907 129.384 476.905 129.16 475.923 128.712C474.963 128.264 474.206 127.635 473.651 126.824H473.587V129H470.707V104.808ZM478.579 126.696C479.347 126.696 480.041 126.568 480.659 126.312C481.278 126.035 481.801 125.672 482.227 125.224C482.654 124.755 482.985 124.2 483.219 123.56C483.454 122.899 483.571 122.184 483.571 121.416C483.571 120.648 483.454 119.944 483.219 119.304C482.985 118.643 482.654 118.088 482.227 117.64C481.801 117.171 481.278 116.808 480.659 116.552C480.041 116.275 479.347 116.136 478.579 116.136C477.811 116.136 477.118 116.275 476.499 116.552C475.881 116.808 475.358 117.171 474.931 117.64C474.505 118.088 474.174 118.643 473.939 119.304C473.705 119.944 473.587 120.648 473.587 121.416C473.587 122.184 473.705 122.899 473.939 123.56C474.174 124.2 474.505 124.755 474.931 125.224C475.358 125.672 475.881 126.035 476.499 126.312C477.118 126.568 477.811 126.696 478.579 126.696ZM492.606 121.416C492.606 122.184 492.723 122.899 492.958 123.56C493.192 124.2 493.523 124.755 493.95 125.224C494.376 125.672 494.899 126.035 495.518 126.312C496.136 126.568 496.83 126.696 497.598 126.696C498.366 126.696 499.059 126.568 499.678 126.312C500.296 126.035 500.819 125.672 501.246 125.224C501.672 124.755 502.003 124.2 502.238 123.56C502.472 122.899 502.59 122.184 502.59 121.416C502.59 120.648 502.472 119.944 502.238 119.304C502.003 118.643 501.672 118.088 501.246 117.64C500.819 117.171 500.296 116.808 499.678 116.552C499.059 116.275 498.366 116.136 497.598 116.136C496.83 116.136 496.136 116.275 495.518 116.552C494.899 116.808 494.376 117.171 493.95 117.64C493.523 118.088 493.192 118.643 492.958 119.304C492.723 119.944 492.606 120.648 492.606 121.416ZM489.534 121.416C489.534 120.307 489.736 119.272 490.142 118.312C490.568 117.352 491.144 116.509 491.87 115.784C492.595 115.059 493.448 114.493 494.43 114.088C495.411 113.661 496.467 113.448 497.598 113.448C498.728 113.448 499.784 113.661 500.766 114.088C501.747 114.493 502.6 115.059 503.326 115.784C504.051 116.509 504.616 117.352 505.022 118.312C505.448 119.272 505.662 120.307 505.662 121.416C505.662 122.525 505.448 123.571 505.022 124.552C504.616 125.512 504.051 126.355 503.326 127.08C502.6 127.784 501.747 128.349 500.766 128.776C499.784 129.181 498.728 129.384 497.598 129.384C496.467 129.384 495.411 129.181 494.43 128.776C493.448 128.349 492.595 127.784 491.87 127.08C491.144 126.355 490.568 125.512 490.142 124.552C489.736 123.571 489.534 122.525 489.534 121.416ZM522.71 129H519.83V126.664H519.766C519.403 127.475 518.774 128.136 517.878 128.648C516.982 129.139 515.947 129.384 514.774 129.384C514.027 129.384 513.323 129.267 512.662 129.032C512 128.819 511.414 128.477 510.902 128.008C510.411 127.539 510.016 126.941 509.718 126.216C509.419 125.469 509.27 124.595 509.27 123.592V113.832H512.15V122.792C512.15 123.496 512.246 124.104 512.438 124.616C512.63 125.107 512.886 125.512 513.206 125.832C513.526 126.131 513.888 126.355 514.294 126.504C514.72 126.632 515.158 126.696 515.606 126.696C516.203 126.696 516.758 126.6 517.27 126.408C517.782 126.216 518.23 125.917 518.614 125.512C518.998 125.085 519.296 124.552 519.51 123.912C519.723 123.272 519.83 122.515 519.83 121.64V113.832H522.71V129ZM535.179 116.328H531.051V123.208C531.051 123.635 531.062 124.061 531.083 124.488C531.104 124.893 531.179 125.267 531.307 125.608C531.456 125.928 531.67 126.195 531.947 126.408C532.246 126.6 532.672 126.696 533.227 126.696C533.568 126.696 533.92 126.664 534.283 126.6C534.646 126.536 534.976 126.419 535.275 126.248V128.872C534.934 129.064 534.486 129.192 533.931 129.256C533.398 129.341 532.982 129.384 532.683 129.384C531.574 129.384 530.71 129.235 530.091 128.936C529.494 128.616 529.046 128.211 528.747 127.72C528.47 127.229 528.299 126.685 528.235 126.088C528.192 125.469 528.171 124.851 528.171 124.232V116.328H524.843V113.832H528.171V109.576H531.051V113.832H535.179V116.328Z" fill="#E8EFE6"/>
<path d="M239.528 106.344H247.144C248.232 106.344 249.277 106.451 250.28 106.664C251.304 106.877 252.2 107.24 252.968 107.752C253.736 108.243 254.344 108.915 254.792 109.768C255.261 110.6 255.496 111.645 255.496 112.904C255.496 114.333 255.251 115.485 254.76 116.36C254.269 117.235 253.608 117.917 252.776 118.408C251.944 118.877 250.973 119.197 249.864 119.368C248.776 119.539 247.635 119.624 246.44 119.624H243.56V129H239.528V106.344ZM245.992 116.168C246.568 116.168 247.165 116.147 247.784 116.104C248.403 116.061 248.968 115.933 249.48 115.72C250.013 115.507 250.44 115.187 250.76 114.76C251.101 114.333 251.272 113.736 251.272 112.968C251.272 112.264 251.123 111.709 250.824 111.304C250.525 110.877 250.141 110.557 249.672 110.344C249.203 110.109 248.68 109.96 248.104 109.896C247.528 109.832 246.973 109.8 246.44 109.8H243.56V116.168H245.992ZM258.739 113.64H262.579V116.072H262.643C263.069 115.176 263.677 114.483 264.467 113.992C265.256 113.501 266.163 113.256 267.187 113.256C267.421 113.256 267.645 113.277 267.859 113.32C268.093 113.363 268.328 113.416 268.563 113.48V117.192C268.243 117.107 267.923 117.043 267.603 117C267.304 116.936 267.005 116.904 266.707 116.904C265.811 116.904 265.085 117.075 264.531 117.416C263.997 117.736 263.581 118.109 263.283 118.536C263.005 118.963 262.813 119.389 262.707 119.816C262.621 120.243 262.579 120.563 262.579 120.776V129H258.739V113.64ZM269.846 121.32C269.846 120.104 270.059 119.005 270.486 118.024C270.934 117.021 271.531 116.168 272.278 115.464C273.024 114.76 273.91 114.216 274.934 113.832C275.958 113.448 277.046 113.256 278.198 113.256C279.35 113.256 280.438 113.448 281.462 113.832C282.486 114.216 283.371 114.76 284.118 115.464C284.864 116.168 285.451 117.021 285.878 118.024C286.326 119.005 286.55 120.104 286.55 121.32C286.55 122.536 286.326 123.645 285.878 124.648C285.451 125.629 284.864 126.472 284.118 127.176C283.371 127.88 282.486 128.424 281.462 128.808C280.438 129.192 279.35 129.384 278.198 129.384C277.046 129.384 275.958 129.192 274.934 128.808C273.91 128.424 273.024 127.88 272.278 127.176C271.531 126.472 270.934 125.629 270.486 124.648C270.059 123.645 269.846 122.536 269.846 121.32ZM273.686 121.32C273.686 121.917 273.782 122.493 273.974 123.048C274.187 123.603 274.486 124.093 274.87 124.52C275.275 124.947 275.755 125.288 276.31 125.544C276.864 125.8 277.494 125.928 278.198 125.928C278.902 125.928 279.531 125.8 280.086 125.544C280.64 125.288 281.11 124.947 281.494 124.52C281.899 124.093 282.198 123.603 282.39 123.048C282.603 122.493 282.71 121.917 282.71 121.32C282.71 120.723 282.603 120.147 282.39 119.592C282.198 119.037 281.899 118.547 281.494 118.12C281.11 117.693 280.64 117.352 280.086 117.096C279.531 116.84 278.902 116.712 278.198 116.712C277.494 116.712 276.864 116.84 276.31 117.096C275.755 117.352 275.275 117.693 274.87 118.12C274.486 118.547 274.187 119.037 273.974 119.592C273.782 120.147 273.686 120.723 273.686 121.32ZM294.049 113.64V129.928C294.049 130.888 293.985 131.773 293.857 132.584C293.729 133.416 293.473 134.131 293.089 134.728C292.726 135.347 292.203 135.827 291.521 136.168C290.838 136.509 289.953 136.68 288.865 136.68C288.502 136.68 288.15 136.659 287.809 136.616C287.467 136.573 287.126 136.499 286.785 136.392L287.073 133.064C287.286 133.107 287.489 133.139 287.681 133.16C287.873 133.203 288.075 133.224 288.289 133.224C288.758 133.224 289.121 133.117 289.377 132.904C289.654 132.712 289.846 132.456 289.953 132.136C290.081 131.816 290.155 131.464 290.177 131.08C290.198 130.696 290.209 130.323 290.209 129.96V113.64H294.049ZM289.665 108.424C289.665 107.805 289.889 107.272 290.337 106.824C290.806 106.355 291.393 106.12 292.097 106.12C292.801 106.12 293.387 106.344 293.857 106.792C294.347 107.219 294.593 107.763 294.593 108.424C294.593 109.085 294.347 109.64 293.857 110.088C293.387 110.515 292.801 110.728 292.097 110.728C291.393 110.728 290.806 110.504 290.337 110.056C289.889 109.587 289.665 109.043 289.665 108.424ZM301.529 122.664C301.657 123.816 302.105 124.712 302.873 125.352C303.641 125.992 304.569 126.312 305.657 126.312C306.617 126.312 307.417 126.12 308.057 125.736C308.719 125.331 309.295 124.829 309.785 124.232L312.537 126.312C311.641 127.421 310.639 128.211 309.529 128.68C308.42 129.149 307.257 129.384 306.041 129.384C304.889 129.384 303.801 129.192 302.777 128.808C301.753 128.424 300.868 127.88 300.121 127.176C299.375 126.472 298.777 125.629 298.329 124.648C297.903 123.645 297.689 122.536 297.689 121.32C297.689 120.104 297.903 119.005 298.329 118.024C298.777 117.021 299.375 116.168 300.121 115.464C300.868 114.76 301.753 114.216 302.777 113.832C303.801 113.448 304.889 113.256 306.041 113.256C307.108 113.256 308.079 113.448 308.953 113.832C309.849 114.195 310.607 114.728 311.225 115.432C311.865 116.136 312.356 117.011 312.697 118.056C313.06 119.08 313.241 120.264 313.241 121.608V122.664H301.529ZM309.401 119.784C309.38 118.653 309.028 117.768 308.345 117.128C307.663 116.467 306.713 116.136 305.497 116.136C304.345 116.136 303.428 116.467 302.745 117.128C302.084 117.789 301.679 118.675 301.529 119.784H309.401ZM327.328 118.248C326.88 117.779 326.411 117.405 325.92 117.128C325.43 116.851 324.928 116.712 324.416 116.712C323.712 116.712 323.083 116.84 322.528 117.096C321.974 117.352 321.494 117.693 321.088 118.12C320.704 118.547 320.406 119.037 320.192 119.592C320 120.147 319.904 120.723 319.904 121.32C319.904 121.917 320 122.493 320.192 123.048C320.406 123.603 320.704 124.093 321.088 124.52C321.494 124.947 321.974 125.288 322.528 125.544C323.083 125.8 323.712 125.928 324.416 125.928C325.014 125.928 325.568 125.811 326.08 125.576C326.592 125.32 327.03 124.957 327.392 124.488L329.952 127.24C329.568 127.624 329.12 127.955 328.608 128.232C328.118 128.509 327.616 128.733 327.104 128.904C326.592 129.075 326.102 129.192 325.632 129.256C325.163 129.341 324.758 129.384 324.416 129.384C323.264 129.384 322.176 129.192 321.152 128.808C320.128 128.424 319.243 127.88 318.496 127.176C317.75 126.472 317.152 125.629 316.704 124.648C316.278 123.645 316.064 122.536 316.064 121.32C316.064 120.104 316.278 119.005 316.704 118.024C317.152 117.021 317.75 116.168 318.496 115.464C319.243 114.76 320.128 114.216 321.152 113.832C322.176 113.448 323.264 113.256 324.416 113.256C325.398 113.256 326.379 113.448 327.36 113.832C328.363 114.195 329.238 114.781 329.984 115.592L327.328 118.248ZM330.478 116.904V113.64H333.646V109.192H337.486V113.64H341.71V116.904H337.486V123.624C337.486 124.392 337.624 125 337.902 125.448C338.2 125.896 338.776 126.12 339.63 126.12C339.971 126.12 340.344 126.088 340.75 126.024C341.155 125.939 341.475 125.811 341.71 125.64V128.872C341.304 129.064 340.803 129.192 340.206 129.256C339.63 129.341 339.118 129.384 338.67 129.384C337.646 129.384 336.803 129.267 336.142 129.032C335.502 128.819 334.99 128.488 334.606 128.04C334.243 127.571 333.987 126.995 333.838 126.312C333.71 125.629 333.646 124.84 333.646 123.944V116.904H330.478ZM352.899 117.896C352.153 116.851 351.15 116.328 349.891 116.328C349.379 116.328 348.878 116.456 348.387 116.712C347.897 116.968 347.651 117.384 347.651 117.96C347.651 118.429 347.854 118.771 348.259 118.984C348.665 119.197 349.177 119.379 349.795 119.528C350.414 119.677 351.075 119.837 351.779 120.008C352.505 120.157 353.177 120.403 353.795 120.744C354.414 121.064 354.926 121.512 355.331 122.088C355.737 122.664 355.939 123.453 355.939 124.456C355.939 125.373 355.737 126.152 355.331 126.792C354.947 127.411 354.435 127.912 353.795 128.296C353.177 128.68 352.473 128.957 351.683 129.128C350.894 129.299 350.105 129.384 349.315 129.384C348.121 129.384 347.022 129.213 346.019 128.872C345.017 128.531 344.121 127.912 343.331 127.016L345.891 124.616C346.382 125.171 346.905 125.629 347.459 125.992C348.035 126.333 348.729 126.504 349.539 126.504C349.817 126.504 350.105 126.472 350.403 126.408C350.702 126.344 350.979 126.237 351.235 126.088C351.491 125.939 351.694 125.757 351.843 125.544C352.014 125.309 352.099 125.043 352.099 124.744C352.099 124.211 351.897 123.816 351.491 123.56C351.086 123.304 350.574 123.101 349.955 122.952C349.337 122.781 348.665 122.632 347.939 122.504C347.235 122.355 346.574 122.131 345.955 121.832C345.337 121.512 344.825 121.075 344.419 120.52C344.014 119.965 343.811 119.197 343.811 118.216C343.811 117.363 343.982 116.627 344.323 116.008C344.686 115.368 345.155 114.845 345.731 114.44C346.307 114.035 346.969 113.736 347.715 113.544C348.462 113.352 349.219 113.256 349.987 113.256C351.011 113.256 352.025 113.437 353.027 113.8C354.03 114.141 354.841 114.739 355.459 115.592L352.899 117.896Z" fill="#E8EFE6"/>
<circle cx="197" cy="299" r="38" fill="#DBD8B3"/>
<path d="M415.548 287.176H422.52C423.789 287.176 424.835 287.353 425.656 287.708C426.477 288.044 427.121 288.483 427.588 289.024C428.073 289.547 428.409 290.144 428.596 290.816C428.783 291.469 428.876 292.104 428.876 292.72C428.876 293.336 428.783 293.98 428.596 294.652C428.409 295.305 428.073 295.903 427.588 296.444C427.121 296.967 426.477 297.405 425.656 297.76C424.835 298.096 423.789 298.264 422.52 298.264H418.236V307H415.548V287.176ZM418.236 295.912H421.764C422.287 295.912 422.8 295.875 423.304 295.8C423.827 295.707 424.284 295.548 424.676 295.324C425.087 295.1 425.413 294.783 425.656 294.372C425.899 293.943 426.02 293.392 426.02 292.72C426.02 292.048 425.899 291.507 425.656 291.096C425.413 290.667 425.087 290.34 424.676 290.116C424.284 289.892 423.827 289.743 423.304 289.668C422.8 289.575 422.287 289.528 421.764 289.528H418.236V295.912ZM431.502 293.728H434.022V295.772H434.078C434.246 295.417 434.47 295.1 434.75 294.82C435.03 294.521 435.338 294.269 435.674 294.064C436.028 293.859 436.411 293.7 436.822 293.588C437.232 293.457 437.643 293.392 438.054 293.392C438.464 293.392 438.838 293.448 439.174 293.56L439.062 296.276C438.856 296.22 438.651 296.173 438.446 296.136C438.24 296.099 438.035 296.08 437.83 296.08C436.598 296.08 435.655 296.425 435.002 297.116C434.348 297.807 434.022 298.88 434.022 300.336V307H431.502V293.728ZM443.417 300.364C443.417 301.036 443.519 301.661 443.725 302.24C443.93 302.8 444.219 303.285 444.593 303.696C444.966 304.088 445.423 304.405 445.965 304.648C446.506 304.872 447.113 304.984 447.785 304.984C448.457 304.984 449.063 304.872 449.605 304.648C450.146 304.405 450.603 304.088 450.977 303.696C451.35 303.285 451.639 302.8 451.845 302.24C452.05 301.661 452.153 301.036 452.153 300.364C452.153 299.692 452.05 299.076 451.845 298.516C451.639 297.937 451.35 297.452 450.977 297.06C450.603 296.649 450.146 296.332 449.605 296.108C449.063 295.865 448.457 295.744 447.785 295.744C447.113 295.744 446.506 295.865 445.965 296.108C445.423 296.332 444.966 296.649 444.593 297.06C444.219 297.452 443.93 297.937 443.725 298.516C443.519 299.076 443.417 299.692 443.417 300.364ZM440.729 300.364C440.729 299.393 440.906 298.488 441.261 297.648C441.634 296.808 442.138 296.071 442.773 295.436C443.407 294.801 444.154 294.307 445.013 293.952C445.871 293.579 446.795 293.392 447.785 293.392C448.774 293.392 449.698 293.579 450.557 293.952C451.415 294.307 452.162 294.801 452.797 295.436C453.431 296.071 453.926 296.808 454.281 297.648C454.654 298.488 454.841 299.393 454.841 300.364C454.841 301.335 454.654 302.249 454.281 303.108C453.926 303.948 453.431 304.685 452.797 305.32C452.162 305.936 451.415 306.431 450.557 306.804C449.698 307.159 448.774 307.336 447.785 307.336C446.795 307.336 445.871 307.159 445.013 306.804C444.154 306.431 443.407 305.936 442.773 305.32C442.138 304.685 441.634 303.948 441.261 303.108C440.906 302.249 440.729 301.335 440.729 300.364ZM460.714 293.728V308.904C460.714 309.24 460.686 309.679 460.63 310.22C460.592 310.78 460.443 311.312 460.182 311.816C459.939 312.339 459.538 312.787 458.978 313.16C458.436 313.533 457.662 313.72 456.654 313.72C456.374 313.72 456.103 313.701 455.842 313.664C455.562 313.627 455.291 313.561 455.03 313.468L455.31 311.144C455.459 311.2 455.627 311.247 455.814 311.284C456 311.34 456.178 311.368 456.346 311.368C457.036 311.368 457.512 311.144 457.774 310.696C458.054 310.267 458.194 309.632 458.194 308.792V293.728H460.714ZM457.606 288.968C457.606 288.464 457.783 288.035 458.138 287.68C458.511 287.307 458.95 287.12 459.454 287.12C459.958 287.12 460.387 287.307 460.742 287.68C461.115 288.035 461.302 288.464 461.302 288.968C461.302 289.472 461.115 289.911 460.742 290.284C460.387 290.639 459.958 290.816 459.454 290.816C458.95 290.816 458.511 290.639 458.138 290.284C457.783 289.911 457.606 289.472 457.606 288.968ZM466.628 301.288C466.628 301.867 466.75 302.399 466.992 302.884C467.254 303.351 467.59 303.752 468 304.088C468.411 304.424 468.887 304.685 469.428 304.872C469.97 305.059 470.53 305.152 471.108 305.152C471.892 305.152 472.574 304.975 473.152 304.62C473.731 304.247 474.263 303.761 474.748 303.164L476.652 304.62C475.252 306.431 473.292 307.336 470.772 307.336C469.727 307.336 468.775 307.159 467.916 306.804C467.076 306.449 466.358 305.964 465.76 305.348C465.182 304.713 464.734 303.976 464.416 303.136C464.099 302.277 463.94 301.353 463.94 300.364C463.94 299.375 464.108 298.46 464.444 297.62C464.799 296.761 465.275 296.024 465.872 295.408C466.488 294.773 467.216 294.279 468.056 293.924C468.896 293.569 469.811 293.392 470.8 293.392C471.976 293.392 472.966 293.597 473.768 294.008C474.59 294.419 475.262 294.96 475.784 295.632C476.307 296.285 476.68 297.032 476.904 297.872C477.147 298.693 477.268 299.533 477.268 300.392V301.288H466.628ZM474.58 299.272C474.562 298.712 474.468 298.199 474.3 297.732C474.151 297.265 473.918 296.864 473.6 296.528C473.283 296.173 472.882 295.903 472.396 295.716C471.93 295.511 471.379 295.408 470.744 295.408C470.128 295.408 469.559 295.529 469.036 295.772C468.532 295.996 468.103 296.295 467.748 296.668C467.394 297.041 467.114 297.461 466.908 297.928C466.722 298.376 466.628 298.824 466.628 299.272H474.58ZM489.775 297.256C489.308 296.771 488.814 296.407 488.291 296.164C487.787 295.903 487.18 295.772 486.471 295.772C485.78 295.772 485.174 295.903 484.651 296.164C484.147 296.407 483.718 296.752 483.363 297.2C483.027 297.629 482.766 298.133 482.579 298.712C482.411 299.272 482.327 299.86 482.327 300.476C482.327 301.092 482.43 301.68 482.635 302.24C482.84 302.781 483.13 303.257 483.503 303.668C483.876 304.079 484.324 304.405 484.847 304.648C485.37 304.872 485.958 304.984 486.611 304.984C487.32 304.984 487.927 304.863 488.431 304.62C488.935 304.359 489.402 303.985 489.831 303.5L491.623 305.292C490.97 306.02 490.204 306.543 489.327 306.86C488.468 307.177 487.554 307.336 486.583 307.336C485.556 307.336 484.614 307.168 483.755 306.832C482.915 306.496 482.187 306.029 481.571 305.432C480.955 304.816 480.479 304.088 480.143 303.248C479.807 302.389 479.639 301.447 479.639 300.42C479.639 299.393 479.807 298.451 480.143 297.592C480.479 296.733 480.946 295.996 481.543 295.38C482.159 294.764 482.887 294.288 483.727 293.952C484.586 293.597 485.538 293.42 486.583 293.42C487.554 293.42 488.478 293.597 489.355 293.952C490.251 294.288 491.026 294.811 491.679 295.52L489.775 297.256ZM500.903 295.912H497.291V301.932C497.291 302.305 497.3 302.679 497.319 303.052C497.337 303.407 497.403 303.733 497.515 304.032C497.645 304.312 497.832 304.545 498.075 304.732C498.336 304.9 498.709 304.984 499.195 304.984C499.493 304.984 499.801 304.956 500.119 304.9C500.436 304.844 500.725 304.741 500.987 304.592V306.888C500.688 307.056 500.296 307.168 499.811 307.224C499.344 307.299 498.98 307.336 498.719 307.336C497.748 307.336 496.992 307.205 496.451 306.944C495.928 306.664 495.536 306.309 495.275 305.88C495.032 305.451 494.883 304.975 494.827 304.452C494.789 303.911 494.771 303.369 494.771 302.828V295.912H491.859V293.728H494.771V290.004H497.291V293.728H500.903V295.912ZM512.591 287.176H515.279V307H512.591V287.176Z" fill="white"/>
<path d="M235.5 349L275.5 383L311.5 294H375" stroke="#F4A5AE" stroke-width="15"/>
<ellipse cx="765.5" cy="294" rx="23.5" ry="23" fill="#D9D9D9"/>
<ellipse cx="823.5" cy="464" rx="23.5" ry="23" fill="#D9D9D9"/>
<ellipse cx="765.5" cy="430" rx="23.5" ry="23" fill="#D9D9D9"/>
<ellipse cx="732.5" cy="365" rx="23.5" ry="23" fill="#D9D9D9"/>
<ellipse cx="833.5" cy="256" rx="23.5" ry="23" fill="#D9D9D9"/>
<line x1="766" y1="363.5" x2="859" y2="363.5" stroke="#E8EFE6" stroke-width="3"/>
<line x1="800.956" y1="315.844" x2="858.956" y2="363.844" stroke="#E8EFE6" stroke-width="3"/>
<line x1="848.482" y1="293.77" x2="859.482" y2="364.77" stroke="#E8EFE6" stroke-width="3"/>
<line x1="799.13" y1="405.778" x2="858.13" y2="363.778" stroke="#E8EFE6" stroke-width="3"/>
<line x1="847.525" y1="428.728" x2="859.525" y2="363.728" stroke="#E8EFE6" stroke-width="3"/>
<path d="M796.86 520.56H795V535.92H796.86V537.12H793.56V519.36H796.86V520.56ZM799.536 525.84C800.016 525.347 800.582 524.987 801.236 524.76C801.902 524.52 802.576 524.4 803.256 524.4C804.642 524.4 805.642 524.727 806.256 525.38C806.869 526.033 807.176 527.027 807.176 528.36V532.38C807.176 532.647 807.189 532.927 807.216 533.22C807.242 533.5 807.276 533.76 807.316 534H805.816C805.762 533.787 805.729 533.553 805.716 533.3C805.716 533.033 805.716 532.8 805.716 532.6H805.676C805.369 533.08 804.956 533.473 804.436 533.78C803.929 534.087 803.316 534.24 802.596 534.24C802.116 534.24 801.662 534.18 801.236 534.06C800.822 533.94 800.456 533.767 800.136 533.54C799.829 533.3 799.582 533.007 799.396 532.66C799.209 532.313 799.116 531.913 799.116 531.46C799.116 530.687 799.316 530.08 799.716 529.64C800.116 529.2 800.609 528.873 801.196 528.66C801.796 528.447 802.436 528.313 803.116 528.26C803.809 528.207 804.442 528.18 805.016 528.18H805.616V527.9C805.616 527.22 805.409 526.707 804.996 526.36C804.596 526.013 804.029 525.84 803.296 525.84C802.789 525.84 802.289 525.927 801.796 526.1C801.316 526.26 800.889 526.513 800.516 526.86L799.536 525.84ZM804.056 529.5C803.056 529.5 802.262 529.64 801.676 529.92C801.089 530.2 800.796 530.66 800.796 531.3C800.796 531.887 800.989 532.307 801.376 532.56C801.776 532.8 802.269 532.92 802.856 532.92C803.309 532.92 803.702 532.847 804.036 532.7C804.382 532.54 804.669 532.333 804.896 532.08C805.122 531.827 805.296 531.533 805.416 531.2C805.536 530.853 805.602 530.487 805.616 530.1V529.5H804.056ZM810.027 526.86C810.027 526.433 810.014 526.033 809.987 525.66C809.96 525.287 809.947 524.947 809.947 524.64H811.427C811.427 524.893 811.434 525.147 811.447 525.4C811.46 525.653 811.467 525.913 811.467 526.18H811.507C811.614 525.953 811.76 525.733 811.947 525.52C812.147 525.307 812.38 525.12 812.647 524.96C812.914 524.787 813.214 524.653 813.547 524.56C813.88 524.453 814.24 524.4 814.627 524.4C815.24 524.4 815.767 524.493 816.207 524.68C816.66 524.867 817.034 525.127 817.327 525.46C817.62 525.793 817.834 526.2 817.967 526.68C818.114 527.147 818.187 527.66 818.187 528.22V534H816.627V528.38C816.627 527.593 816.454 526.973 816.107 526.52C815.76 526.067 815.22 525.84 814.487 525.84C813.98 525.84 813.54 525.927 813.167 526.1C812.807 526.273 812.507 526.52 812.267 526.84C812.04 527.16 811.867 527.54 811.747 527.98C811.64 528.42 811.587 528.907 811.587 529.44V534H810.027V526.86ZM821.28 524.64H822.84V534H821.28V524.64ZM820.92 520.98C820.92 520.673 821.027 520.407 821.24 520.18C821.467 519.953 821.74 519.84 822.06 519.84C822.38 519.84 822.647 519.953 822.86 520.18C823.087 520.407 823.2 520.673 823.2 520.98C823.2 521.313 823.093 521.587 822.88 521.8C822.667 522.013 822.393 522.12 822.06 522.12C821.727 522.12 821.453 522.013 821.24 521.8C821.027 521.587 820.92 521.313 820.92 520.98ZM825.945 526.86C825.945 526.433 825.932 526.033 825.905 525.66C825.878 525.287 825.865 524.947 825.865 524.64H827.345C827.345 524.893 827.352 525.147 827.365 525.4C827.378 525.653 827.385 525.913 827.385 526.18H827.425C827.532 525.953 827.678 525.733 827.865 525.52C828.065 525.307 828.298 525.12 828.565 524.96C828.832 524.787 829.132 524.653 829.465 524.56C829.798 524.453 830.158 524.4 830.545 524.4C831.052 524.4 831.472 524.467 831.805 524.6C832.152 524.72 832.438 524.873 832.665 525.06C832.892 525.233 833.065 525.427 833.185 525.64C833.318 525.84 833.425 526.02 833.505 526.18C833.852 525.62 834.252 525.187 834.705 524.88C835.158 524.56 835.745 524.4 836.465 524.4C837.132 524.4 837.692 524.493 838.145 524.68C838.598 524.853 838.965 525.113 839.245 525.46C839.525 525.793 839.725 526.207 839.845 526.7C839.965 527.18 840.025 527.72 840.025 528.32V534H838.465V528.4C838.465 528.08 838.432 527.767 838.365 527.46C838.298 527.153 838.178 526.88 838.005 526.64C837.832 526.4 837.598 526.207 837.305 526.06C837.012 525.913 836.638 525.84 836.185 525.84C835.852 525.84 835.538 525.907 835.245 526.04C834.952 526.173 834.692 526.36 834.465 526.6C834.252 526.84 834.078 527.133 833.945 527.48C833.825 527.813 833.765 528.187 833.765 528.6V534H832.205V528.7C832.205 527.66 832.065 526.927 831.785 526.5C831.505 526.06 831.045 525.84 830.405 525.84C829.898 525.84 829.458 525.927 829.085 526.1C828.725 526.273 828.425 526.52 828.185 526.84C827.958 527.16 827.785 527.54 827.665 527.98C827.558 528.42 827.505 528.907 827.505 529.44V534H825.945V526.86ZM842.856 525.84C843.336 525.347 843.903 524.987 844.556 524.76C845.223 524.52 845.896 524.4 846.576 524.4C847.963 524.4 848.963 524.727 849.576 525.38C850.189 526.033 850.496 527.027 850.496 528.36V532.38C850.496 532.647 850.509 532.927 850.536 533.22C850.563 533.5 850.596 533.76 850.636 534H849.136C849.083 533.787 849.049 533.553 849.036 533.3C849.036 533.033 849.036 532.8 849.036 532.6H848.996C848.689 533.08 848.276 533.473 847.756 533.78C847.249 534.087 846.636 534.24 845.916 534.24C845.436 534.24 844.983 534.18 844.556 534.06C844.143 533.94 843.776 533.767 843.456 533.54C843.149 533.3 842.903 533.007 842.716 532.66C842.529 532.313 842.436 531.913 842.436 531.46C842.436 530.687 842.636 530.08 843.036 529.64C843.436 529.2 843.929 528.873 844.516 528.66C845.116 528.447 845.756 528.313 846.436 528.26C847.129 528.207 847.763 528.18 848.336 528.18H848.936V527.9C848.936 527.22 848.729 526.707 848.316 526.36C847.916 526.013 847.349 525.84 846.616 525.84C846.109 525.84 845.609 525.927 845.116 526.1C844.636 526.26 844.209 526.513 843.836 526.86L842.856 525.84ZM847.376 529.5C846.376 529.5 845.583 529.64 844.996 529.92C844.409 530.2 844.116 530.66 844.116 531.3C844.116 531.887 844.309 532.307 844.696 532.56C845.096 532.8 845.589 532.92 846.176 532.92C846.629 532.92 847.023 532.847 847.356 532.7C847.703 532.54 847.989 532.333 848.216 532.08C848.443 531.827 848.616 531.533 848.736 531.2C848.856 530.853 848.923 530.487 848.936 530.1V529.5H847.376ZM858.467 525.96H855.707V530.64C855.707 530.947 855.714 531.233 855.727 531.5C855.741 531.753 855.794 531.98 855.887 532.18C855.981 532.367 856.121 532.52 856.307 532.64C856.494 532.747 856.761 532.8 857.107 532.8C857.334 532.8 857.567 532.773 857.807 532.72C858.047 532.667 858.274 532.587 858.487 532.48L858.547 533.9C858.281 534.02 857.981 534.107 857.647 534.16C857.327 534.213 857.021 534.24 856.727 534.24C856.167 534.24 855.721 534.167 855.387 534.02C855.054 533.873 854.794 533.667 854.607 533.4C854.421 533.133 854.294 532.807 854.227 532.42C854.174 532.02 854.147 531.58 854.147 531.1V525.96H852.107V524.64H854.147V521.98H855.707V524.64H858.467V525.96ZM860.538 524.64H862.098V534H860.538V524.64ZM860.178 520.98C860.178 520.673 860.285 520.407 860.498 520.18C860.725 519.953 860.998 519.84 861.318 519.84C861.638 519.84 861.905 519.953 862.118 520.18C862.345 520.407 862.458 520.673 862.458 520.98C862.458 521.313 862.351 521.587 862.138 521.8C861.925 522.013 861.651 522.12 861.318 522.12C860.985 522.12 860.711 522.013 860.498 521.8C860.285 521.587 860.178 521.313 860.178 520.98ZM864.663 529.32C864.663 528.587 864.789 527.92 865.043 527.32C865.296 526.72 865.643 526.207 866.083 525.78C866.523 525.34 867.049 525 867.663 524.76C868.276 524.52 868.943 524.4 869.663 524.4C870.383 524.4 871.049 524.52 871.663 524.76C872.276 525 872.803 525.34 873.243 525.78C873.683 526.207 874.029 526.72 874.283 527.32C874.536 527.92 874.663 528.587 874.663 529.32C874.663 530.053 874.536 530.72 874.283 531.32C874.029 531.92 873.683 532.44 873.243 532.88C872.803 533.307 872.276 533.64 871.663 533.88C871.049 534.12 870.383 534.24 869.663 534.24C868.943 534.24 868.276 534.12 867.663 533.88C867.049 533.64 866.523 533.307 866.083 532.88C865.643 532.44 865.296 531.92 865.043 531.32C864.789 530.72 864.663 530.053 864.663 529.32ZM866.343 529.32C866.343 529.813 866.416 530.273 866.563 530.7C866.723 531.113 866.949 531.48 867.243 531.8C867.536 532.107 867.883 532.353 868.283 532.54C868.696 532.713 869.156 532.8 869.663 532.8C870.169 532.8 870.623 532.713 871.023 532.54C871.436 532.353 871.789 532.107 872.083 531.8C872.376 531.48 872.596 531.113 872.743 530.7C872.903 530.273 872.983 529.813 872.983 529.32C872.983 528.827 872.903 528.373 872.743 527.96C872.596 527.533 872.376 527.167 872.083 526.86C871.789 526.54 871.436 526.293 871.023 526.12C870.623 525.933 870.169 525.84 869.663 525.84C869.156 525.84 868.696 525.933 868.283 526.12C867.883 526.293 867.536 526.54 867.243 526.86C866.949 527.167 866.723 527.533 866.563 527.96C866.416 528.373 866.343 528.827 866.343 529.32ZM877.078 526.86C877.078 526.433 877.064 526.033 877.038 525.66C877.011 525.287 876.998 524.947 876.998 524.64H878.478C878.478 524.893 878.484 525.147 878.498 525.4C878.511 525.653 878.518 525.913 878.518 526.18H878.558C878.664 525.953 878.811 525.733 878.998 525.52C879.198 525.307 879.431 525.12 879.698 524.96C879.964 524.787 880.264 524.653 880.598 524.56C880.931 524.453 881.291 524.4 881.678 524.4C882.291 524.4 882.818 524.493 883.258 524.68C883.711 524.867 884.084 525.127 884.378 525.46C884.671 525.793 884.884 526.2 885.018 526.68C885.164 527.147 885.238 527.66 885.238 528.22V534H883.678V528.38C883.678 527.593 883.504 526.973 883.158 526.52C882.811 526.067 882.271 525.84 881.538 525.84C881.031 525.84 880.591 525.927 880.218 526.1C879.858 526.273 879.558 526.52 879.318 526.84C879.091 527.16 878.918 527.54 878.798 527.98C878.691 528.42 878.638 528.907 878.638 529.44V534H877.078V526.86ZM888.031 519.36H891.331V537.12H888.031V535.92H889.891V520.56H888.031V519.36Z" fill="white"/>
</svg>
